<?xml version="1.0" standalone="no"?>
<!DOCTYPE svg PUBLIC "-//W3C//DTD SVG 20010904//EN"
 "http://www.w3.org/TR/2001/REC-SVG-20010904/DTD/svg10.dtd">
<svg version="1.0" xmlns="http://www.w3.org/2000/svg"
 width="2535.000000pt" height="2535.000000pt" viewBox="0 0 2535.000000 2535.000000"
 preserveAspectRatio="xMidYMid meet">
<metadata>
Created by potrace 1.11, written by Peter Selinger 2001-2013
</metadata>
<g transform="translate(0.000000,2535.000000) scale(0.100000,-0.100000)"
fill="#000000" stroke="none">
<path d="M12308 25345 c-2 -2 -82 -6 -178 -9 -96 -4 -200 -9 -230 -11 -112 -8
-236 -17 -275 -20 -22 -2 -74 -6 -115 -10 -79 -6 -145 -13 -195 -20 -16 -2
-61 -7 -100 -10 -38 -4 -76 -8 -85 -10 -8 -1 -40 -6 -70 -10 -30 -3 -66 -8
-80 -10 -14 -2 -50 -7 -80 -10 -30 -4 -62 -9 -70 -10 -38 -7 -102 -17 -123
-20 -21 -3 -189 -30 -252 -41 -16 -3 -77 -14 -135 -26 -58 -11 -116 -22 -130
-24 -14 -2 -36 -7 -50 -10 -14 -3 -36 -8 -50 -10 -201 -37 -671 -155 -1015
-256 -154 -45 -636 -202 -696 -227 -13 -5 -67 -25 -119 -44 -109 -40 -271
-102 -315 -122 -16 -7 -55 -23 -85 -35 -60 -25 -65 -27 -225 -95 -260 -111
-710 -329 -955 -463 -66 -35 -278 -154 -337 -188 -94 -55 -271 -160 -293 -175
-14 -9 -63 -40 -110 -69 -244 -153 -784 -523 -830 -570 -3 -3 -41 -32 -85 -64
-76 -57 -254 -195 -265 -206 -3 -3 -39 -32 -80 -65 -103 -83 -105 -84 -200
-165 -260 -221 -517 -459 -769 -711 -159 -160 -296 -303 -396 -414 -49 -55
-98 -109 -108 -120 -117 -127 -444 -522 -552 -665 -27 -36 -52 -67 -55 -70
-16 -14 -347 -473 -386 -535 -10 -16 -21 -32 -24 -35 -24 -23 -310 -475 -439
-695 -45 -77 -86 -147 -91 -155 -71 -121 -302 -553 -305 -570 0 -3 -7 -16 -15
-30 -27 -48 -103 -207 -177 -370 -41 -91 -83 -183 -94 -205 -172 -368 -463
-1182 -591 -1650 -27 -101 -75 -279 -84 -315 -9 -36 -26 -106 -29 -120 -2 -8
-19 -83 -39 -166 -19 -84 -37 -163 -40 -175 -14 -66 -37 -186 -42 -213 -2 -17
-9 -47 -14 -66 -7 -29 -33 -175 -46 -255 -1 -11 -16 -108 -33 -215 -16 -107
-33 -220 -36 -250 -9 -78 -11 -99 -19 -150 -3 -25 -8 -65 -11 -90 -2 -25 -6
-65 -9 -90 -3 -25 -8 -76 -11 -115 -4 -38 -8 -86 -10 -105 -6 -55 -22 -284
-30 -420 -17 -291 -22 -879 -11 -1135 17 -358 32 -605 41 -670 2 -16 7 -66 10
-110 4 -44 8 -91 11 -105 2 -14 6 -56 10 -95 3 -38 7 -77 9 -85 2 -8 7 -42 10
-75 3 -33 8 -71 10 -85 7 -38 13 -80 20 -135 3 -27 10 -79 16 -115 6 -36 12
-78 15 -95 2 -16 6 -41 9 -55 3 -14 10 -52 15 -85 10 -64 27 -167 34 -200 88
-443 160 -748 253 -1075 19 -69 36 -129 37 -135 14 -59 135 -432 204 -630 114
-324 272 -723 372 -940 142 -310 189 -408 271 -570 345 -682 743 -1321 1202
-1930 50 -65 96 -126 103 -135 7 -8 61 -76 120 -150 466 -587 1053 -1193 1652
-1709 33 -28 201 -167 292 -241 41 -34 84 -69 95 -78 30 -25 412 -312 475
-357 131 -94 362 -249 640 -430 109 -71 466 -282 580 -343 36 -19 70 -38 75
-42 65 -48 762 -390 1035 -507 58 -25 119 -51 135 -58 74 -33 181 -77 196 -80
9 -2 36 -12 60 -23 156 -71 797 -291 1109 -381 287 -82 644 -173 803 -205 12
-3 76 -16 142 -30 66 -14 134 -27 150 -30 17 -3 41 -8 55 -11 31 -7 340 -62
395 -71 45 -7 38 -6 200 -28 66 -10 131 -19 145 -21 14 -2 52 -7 85 -10 33 -4
73 -9 89 -11 16 -3 54 -7 85 -10 31 -3 67 -7 81 -9 14 -1 59 -5 100 -9 41 -4
95 -9 120 -11 41 -4 110 -9 275 -21 105 -7 257 -15 375 -19 136 -5 780 -5 895
0 182 8 343 16 385 20 25 2 86 6 135 10 50 3 115 8 145 11 139 13 241 23 290
29 19 2 60 7 90 10 50 5 84 9 160 20 14 2 50 7 80 11 84 10 341 49 385 57 30
6 97 19 125 23 27 5 386 74 410 79 379 83 749 180 1095 287 248 76 664 220
780 269 11 5 101 40 200 80 99 39 194 77 210 84 17 8 113 51 215 96 190 84
651 309 820 400 95 51 277 153 315 176 11 7 27 15 35 19 131 64 752 463 1027
660 250 180 706 533 818 635 32 29 43 38 126 109 291 245 711 655 1069 1041
27 29 114 128 150 169 12 14 36 41 53 60 114 126 382 457 535 660 56 74 105
140 110 145 39 50 231 323 319 455 232 349 429 674 628 1040 62 114 315 615
315 624 0 2 22 50 49 107 27 57 77 169 111 249 34 80 68 159 75 175 7 17 38
93 68 170 159 403 279 752 392 1140 28 98 105 377 110 402 1 10 13 56 25 103
12 47 23 92 25 100 2 8 17 76 34 150 16 74 32 146 35 160 3 14 8 36 11 50 3
14 12 59 20 100 8 41 17 86 20 100 2 13 7 42 10 65 4 22 10 56 15 75 5 19 11
57 15 84 3 27 8 52 10 55 1 3 6 30 10 60 4 30 9 63 11 75 2 11 6 38 9 61 6 45
16 112 20 135 6 33 23 166 30 235 3 28 7 66 10 85 11 84 15 119 20 185 3 39 8
90 10 115 11 112 20 224 30 400 20 335 25 992 11 1290 -15 284 -23 416 -31
495 -2 22 -6 76 -10 120 -3 44 -8 91 -10 105 -2 14 -7 59 -10 100 -4 41 -9 84
-11 95 -2 11 -6 47 -9 80 -3 33 -8 71 -10 85 -2 14 -7 45 -10 70 -8 65 -14
114 -30 215 -8 50 -17 107 -21 129 -3 21 -7 48 -10 59 -2 12 -6 37 -9 57 -3
20 -7 47 -10 60 -3 14 -10 52 -15 85 -32 179 -93 464 -151 705 -17 69 -32 132
-34 140 -3 15 -39 147 -76 280 -115 419 -355 1114 -484 1405 -7 17 -32 75 -55
130 -23 55 -48 114 -55 130 -377 853 -821 1624 -1375 2385 -46 63 -94 129
-107 145 -13 17 -27 35 -31 40 -84 113 -393 499 -416 520 -6 6 -35 39 -65 75
-30 36 -59 70 -65 75 -6 6 -24 26 -40 45 -33 41 -160 181 -266 294 -173 186
-629 633 -763 749 -12 10 -38 33 -57 51 -19 17 -100 87 -180 155 -80 68 -156
133 -170 145 -154 132 -577 454 -810 617 -234 163 -689 459 -707 459 -3 0 -21
11 -39 25 -18 14 -35 25 -37 25 -3 0 -65 35 -138 78 -74 43 -170 98 -214 122
-44 24 -109 59 -145 80 -77 43 -534 271 -635 317 -38 18 -106 49 -150 69 -636
291 -1414 560 -2137 740 -216 53 -609 138 -762 164 -28 5 -89 16 -136 24 -96
16 -149 25 -200 32 -19 2 -42 6 -50 9 -8 2 -37 7 -65 10 -27 3 -61 7 -74 10
-14 2 -47 7 -75 10 -28 3 -62 8 -76 10 -14 2 -50 7 -80 10 -30 3 -66 8 -80 10
-14 2 -50 6 -80 9 -30 3 -100 10 -155 16 -55 5 -131 12 -170 15 -38 2 -99 7
-135 9 -60 5 -149 11 -335 22 -76 5 -953 13 -957 9z m922 -599 c47 -3 130 -8
185 -11 55 -3 120 -7 145 -10 25 -2 83 -7 130 -10 47 -4 99 -8 115 -10 17 -1
62 -5 100 -9 39 -3 81 -8 95 -10 14 -3 54 -7 90 -10 36 -4 76 -8 90 -11 14 -2
46 -7 72 -10 68 -7 232 -31 288 -41 14 -2 45 -6 70 -9 25 -3 52 -8 61 -11 10
-2 30 -6 45 -9 32 -4 185 -31 224 -40 14 -3 39 -7 55 -10 81 -14 350 -71 445
-95 41 -10 86 -21 100 -24 14 -3 70 -17 125 -31 55 -15 109 -29 119 -31 46 -9
525 -148 561 -163 11 -5 72 -25 135 -46 361 -116 852 -309 1225 -480 153 -70
612 -300 718 -359 64 -36 119 -66 121 -66 6 0 333 -192 456 -268 193 -119 487
-312 632 -416 31 -23 66 -48 78 -56 35 -24 395 -295 474 -358 129 -102 430
-355 532 -447 250 -226 538 -507 741 -721 60 -64 231 -248 250 -271 78 -91
104 -121 120 -138 142 -152 583 -719 753 -970 30 -44 57 -82 60 -85 13 -11
242 -364 332 -510 241 -392 509 -892 688 -1285 146 -321 316 -741 405 -1000
15 -44 31 -89 36 -100 25 -60 160 -493 215 -692 33 -120 128 -494 138 -543 2
-14 19 -90 36 -170 27 -124 60 -288 76 -380 13 -74 17 -98 21 -125 2 -16 8
-52 13 -80 5 -27 12 -70 15 -95 3 -25 11 -74 16 -110 13 -84 22 -151 34 -255
3 -27 8 -61 10 -75 6 -42 17 -143 31 -290 6 -67 7 -87 19 -250 4 -52 8 -117
10 -145 24 -326 24 -1170 1 -1445 -3 -25 -7 -94 -11 -154 -4 -60 -8 -116 -10
-125 -1 -9 -6 -61 -10 -116 -4 -55 -8 -106 -10 -115 -1 -8 -6 -46 -9 -85 -9
-87 -12 -111 -32 -260 -9 -66 -18 -133 -20 -148 -10 -78 -43 -291 -60 -377 -2
-14 -7 -41 -10 -60 -3 -19 -16 -89 -29 -155 -13 -66 -26 -131 -29 -145 -2 -14
-18 -88 -36 -165 -17 -77 -33 -149 -35 -160 -31 -144 -152 -586 -230 -836
-115 -367 -313 -900 -426 -1147 -16 -34 -29 -64 -29 -67 0 -2 -11 -28 -24 -57
-13 -29 -35 -78 -49 -108 -14 -30 -39 -86 -57 -125 -202 -441 -556 -1073 -853
-1520 -132 -198 -350 -510 -400 -570 -4 -5 -57 -75 -118 -155 -61 -80 -126
-163 -144 -185 -18 -22 -69 -83 -111 -135 -43 -52 -83 -100 -89 -106 -5 -6
-26 -30 -45 -54 -19 -24 -51 -61 -70 -82 -19 -20 -46 -50 -59 -65 -181 -211
-622 -664 -841 -863 -51 -47 -112 -102 -134 -123 -23 -21 -63 -57 -90 -80 -27
-23 -54 -47 -60 -52 -10 -9 -197 -169 -251 -214 -374 -311 -906 -691 -1345
-961 -349 -215 -600 -353 -995 -549 -261 -130 -285 -141 -517 -242 -218 -95
-630 -260 -683 -273 -5 -2 -21 -8 -35 -13 -62 -26 -465 -158 -662 -217 -255
-76 -833 -223 -953 -241 -11 -2 -90 -17 -175 -34 -85 -18 -168 -34 -185 -37
-16 -2 -56 -9 -88 -15 -32 -5 -74 -12 -95 -15 -20 -2 -59 -8 -87 -14 -27 -5
-74 -12 -104 -15 -30 -4 -63 -9 -75 -11 -12 -2 -43 -6 -71 -9 -27 -3 -61 -8
-75 -10 -36 -7 -85 -13 -176 -20 -43 -4 -81 -9 -84 -10 -3 -2 -46 -6 -95 -10
-50 -3 -101 -8 -115 -10 -14 -2 -65 -7 -115 -10 -49 -3 -110 -8 -135 -10 -314
-27 -1341 -27 -1620 0 -19 2 -75 6 -125 9 -87 6 -124 10 -250 21 -103 10 -165
17 -265 30 -19 2 -60 7 -90 10 -30 3 -80 10 -110 15 -30 5 -80 12 -110 15 -30
3 -62 8 -70 10 -13 4 -61 11 -125 20 -11 1 -48 8 -82 14 -35 6 -74 13 -88 16
-104 18 -326 61 -415 80 -457 100 -903 222 -1285 350 -390 132 -862 317 -1160
455 -33 15 -87 40 -120 55 -110 50 -511 252 -636 321 -553 302 -1044 617
-1502 962 -249 188 -250 189 -477 377 -119 98 -204 171 -270 231 -25 22 -63
56 -84 75 -165 144 -562 532 -723 705 -127 137 -224 244 -254 279 -19 22 -36
42 -39 45 -3 3 -35 39 -70 80 -36 41 -68 77 -71 80 -35 30 -497 625 -579 745
-18 28 -37 52 -41 55 -7 5 -310 456 -376 560 -63 101 -203 331 -203 336 0 2
-17 32 -38 66 -66 109 -226 405 -332 618 -56 113 -113 225 -125 250 -85 168
-322 733 -415 990 -23 63 -52 144 -65 180 -68 186 -229 706 -260 838 -3 9 -20
78 -40 152 -19 74 -37 146 -40 160 -2 14 -16 70 -29 125 -40 161 -103 483
-151 767 -7 38 -55 367 -60 408 -2 19 -7 58 -10 85 -3 28 -7 61 -10 75 -2 14
-7 57 -10 95 -3 39 -8 88 -10 110 -10 95 -21 232 -30 360 -3 50 -8 126 -10
170 -15 224 -21 828 -11 1075 6 147 16 346 21 405 5 63 16 201 20 240 1 17 6
71 10 120 4 50 9 97 10 105 2 8 6 44 10 80 3 36 8 76 10 90 2 14 7 50 10 80 3
30 8 66 10 80 2 14 7 45 10 70 3 25 12 86 20 135 8 50 16 106 19 125 5 33 41
237 51 290 2 14 18 93 35 175 17 83 33 161 36 175 24 123 125 524 179 710 20
69 38 132 40 140 22 95 193 600 294 868 163 430 428 1009 639 1397 49 91 124
224 139 250 7 11 15 27 19 35 4 8 60 103 124 210 282 473 589 913 944 1355
183 229 315 382 550 640 103 114 500 513 622 625 201 187 297 272 454 404 58
49 115 97 128 107 106 89 398 316 547 425 323 236 836 570 1130 734 286 160
667 358 845 439 41 19 116 53 165 76 76 35 163 73 490 210 241 102 842 307
1165 399 167 47 601 158 664 170 26 5 174 36 201 42 83 20 436 84 595 108 155
24 196 29 288 41 20 2 55 7 77 9 22 3 60 8 85 11 25 3 61 7 80 10 19 2 64 7
100 10 36 3 85 8 110 11 70 7 147 13 245 19 50 4 108 8 130 10 22 2 121 6 220
10 99 4 181 8 183 10 5 4 814 -3 902 -9z"/>
<path d="M12279 23986 c-2 -2 -71 -6 -154 -10 -82 -4 -175 -8 -205 -11 -30 -2
-93 -7 -140 -10 -47 -4 -103 -8 -125 -10 -132 -13 -163 -16 -195 -20 -19 -2
-64 -7 -100 -10 -36 -3 -72 -8 -80 -10 -8 -2 -37 -6 -65 -9 -58 -6 -304 -42
-385 -56 -30 -5 -71 -12 -90 -15 -28 -4 -309 -58 -370 -70 -66 -13 -301 -66
-312 -70 -7 -2 -24 -6 -38 -9 -14 -2 -54 -12 -90 -21 -36 -9 -72 -18 -80 -20
-95 -20 -562 -158 -765 -227 -304 -103 -718 -262 -921 -353 -16 -8 -61 -28
-100 -45 -38 -17 -96 -43 -129 -58 -97 -44 -502 -246 -600 -300 -201 -110
-232 -127 -280 -155 -27 -17 -59 -35 -70 -41 -80 -45 -278 -166 -415 -254
-246 -158 -584 -396 -795 -561 -22 -17 -53 -41 -70 -54 -453 -344 -1130 -983
-1516 -1432 -19 -21 -41 -46 -49 -55 -28 -29 -306 -365 -355 -430 -28 -36 -53
-67 -56 -70 -12 -10 -268 -360 -355 -485 -489 -704 -916 -1503 -1220 -2279
-30 -78 -59 -150 -64 -161 -31 -68 -213 -610 -255 -755 -51 -182 -142 -520
-150 -560 -4 -21 -38 -162 -46 -190 -11 -41 -105 -517 -113 -575 -3 -22 -12
-78 -20 -125 -8 -47 -18 -110 -21 -140 -3 -30 -8 -62 -10 -70 -2 -8 -7 -39
-10 -69 -4 -30 -8 -62 -10 -72 -2 -9 -6 -46 -10 -81 -3 -34 -8 -76 -10 -93 -6
-46 -14 -123 -20 -195 -3 -36 -7 -87 -10 -115 -3 -27 -7 -86 -10 -130 -3 -44
-8 -105 -10 -135 -23 -324 -24 -1069 0 -1375 1 -22 6 -86 9 -142 4 -56 9 -117
11 -135 2 -18 6 -64 9 -103 8 -85 16 -170 21 -210 2 -16 9 -70 15 -120 6 -49
13 -101 15 -115 2 -14 6 -47 9 -75 4 -27 9 -61 11 -75 3 -14 7 -41 10 -60 2
-19 9 -64 15 -100 6 -36 13 -83 16 -105 3 -22 7 -46 10 -54 3 -8 7 -30 10 -50
5 -29 23 -126 49 -256 42 -208 113 -504 172 -715 19 -69 38 -138 43 -155 51
-192 188 -597 325 -960 117 -311 392 -905 568 -1230 87 -160 162 -291 240
-423 51 -84 97 -161 102 -171 48 -82 276 -425 423 -635 127 -182 425 -565 565
-726 12 -14 48 -56 82 -95 33 -38 74 -86 92 -105 17 -19 41 -46 53 -60 80 -93
234 -254 415 -435 205 -205 266 -264 430 -412 116 -104 128 -115 255 -221 63
-53 117 -99 120 -102 25 -28 443 -351 596 -460 27 -19 74 -53 104 -74 167
-119 616 -409 742 -479 25 -14 63 -36 85 -50 21 -13 69 -40 106 -61 37 -20 84
-46 105 -58 195 -111 604 -314 872 -433 474 -211 1015 -407 1485 -538 337 -94
445 -121 785 -193 63 -14 125 -26 138 -29 12 -2 48 -9 80 -15 31 -5 68 -12 82
-15 40 -8 246 -42 300 -50 14 -2 45 -6 70 -10 102 -15 114 -17 255 -34 127
-16 237 -28 335 -36 36 -3 83 -8 105 -10 22 -2 83 -7 135 -10 52 -4 118 -8
145 -10 328 -23 950 -23 1335 0 103 6 257 17 290 20 19 2 69 6 110 10 41 3 86
8 100 10 14 2 59 7 100 10 41 3 82 8 90 10 8 2 40 7 70 10 96 11 331 45 445
65 61 10 128 21 150 25 22 3 47 7 55 10 8 2 33 6 55 10 22 3 56 10 75 15 19 5
48 11 64 14 16 3 52 10 80 16 28 6 60 12 71 14 110 22 472 112 630 158 39 11
79 22 90 25 336 88 988 324 1400 506 208 91 278 125 560 267 585 295 1108 617
1645 1014 90 66 269 205 280 216 3 3 23 18 45 35 22 16 42 31 45 35 3 3 30 25
60 50 30 25 57 47 60 50 3 3 30 25 60 50 30 25 60 49 66 55 6 5 42 37 80 70
187 162 442 404 644 610 118 120 149 152 273 288 45 49 87 95 93 101 113 119
470 559 634 781 57 77 115 156 129 175 14 19 37 51 50 70 13 19 65 96 116 170
170 248 389 606 531 867 21 37 56 102 79 143 123 224 365 739 482 1025 182
446 403 1113 488 1473 3 9 9 37 16 62 14 59 13 53 52 225 30 127 44 192 83
380 2 11 7 40 10 65 3 25 8 48 10 51 2 3 8 34 14 70 5 35 12 75 14 89 4 21 29
182 41 260 7 48 19 135 20 155 3 29 16 126 20 155 3 14 7 52 10 85 2 33 7 83
10 110 9 85 14 140 20 237 4 51 9 109 10 128 26 261 26 1112 0 1495 -8 121
-17 234 -21 265 -2 19 -7 69 -10 110 -7 87 -8 95 -18 175 -13 109 -33 258 -41
315 -6 42 -26 173 -31 200 -2 14 -6 41 -9 60 -3 19 -7 46 -10 60 -3 14 -8 41
-11 60 -6 35 -92 471 -99 500 -2 8 -11 47 -20 85 -9 39 -18 77 -20 87 -10 50
-93 358 -140 518 -95 326 -260 804 -349 1015 -7 17 -28 66 -46 110 -35 88 -35
85 -113 265 -96 221 -269 573 -381 778 -31 56 -56 105 -56 107 0 3 -18 34 -40
70 -22 36 -40 67 -40 70 0 10 -223 376 -332 544 -177 273 -416 610 -588 826
-30 38 -60 76 -67 85 -16 21 -215 263 -228 276 -5 6 -30 35 -55 64 -260 309
-748 801 -1085 1095 -44 39 -82 72 -85 76 -11 12 -252 210 -345 285 -55 43
-102 81 -105 84 -13 13 -221 168 -365 272 -249 178 -570 388 -817 533 -121 72
-229 132 -433 245 -67 37 -466 237 -535 268 -25 11 -83 38 -130 60 -47 21
-141 63 -210 92 -69 29 -138 58 -155 65 -89 39 -373 147 -570 216 -222 79
-691 223 -825 254 -8 2 -69 17 -135 34 -284 71 -695 157 -890 186 -11 2 -78
12 -150 24 -118 18 -310 44 -425 57 -25 3 -58 7 -75 9 -16 2 -64 7 -105 10
-41 4 -93 8 -115 11 -74 7 -150 13 -250 20 -55 3 -127 8 -160 10 -73 5 -992
14 -996 10z m816 -961 c17 -2 66 -7 110 -10 44 -3 94 -7 110 -9 17 -2 66 -7
110 -11 44 -4 94 -9 110 -10 17 -2 64 -6 105 -9 111 -10 107 -7 100 -71 -3
-31 -7 -58 -8 -60 -1 -3 -2 -21 -2 -40 l0 -35 -52 5 c-29 3 -73 7 -98 9 -84 7
-185 17 -215 21 -16 2 -67 7 -112 11 -77 6 -83 5 -84 -12 -1 -11 -3 -28 -4
-39 -2 -11 -6 -54 -10 -95 -3 -41 -8 -82 -11 -92 -3 -9 1 -20 7 -24 13 -7 21
-9 142 -19 43 -4 88 -8 100 -10 12 -2 58 -6 102 -10 44 -3 88 -7 98 -8 21 -4
37 -25 31 -41 -4 -12 -12 -86 -13 -129 l-1 -28 -62 6 c-69 6 -148 13 -218 20
-25 2 -76 7 -115 11 -38 3 -74 7 -79 7 -11 3 -12 0 -31 -218 -14 -154 -27
-259 -32 -268 -2 -4 -7 -5 -11 -3 -4 2 -44 7 -90 11 -46 4 -91 8 -100 10 -9 2
-21 4 -25 4 -5 1 -6 4 -4 9 3 4 8 41 12 82 3 41 8 89 9 105 2 17 7 68 11 115
4 47 9 96 10 110 2 14 6 61 9 105 4 44 9 96 11 115 3 19 7 67 11 105 3 39 7
86 9 105 2 19 7 69 11 110 4 41 8 84 9 95 1 11 3 37 4 58 l1 39 58 -7 c31 -3
71 -8 87 -10z m1235 -154 c36 -6 68 -11 73 -11 4 0 5 -12 3 -27 -3 -16 -8 -50
-12 -78 -5 -27 -9 -53 -10 -57 -1 -5 -2 -13 -3 -19 0 -6 -12 -8 -28 -5 -16 3
-46 8 -68 12 -64 9 -87 13 -90 16 -2 2 4 44 12 94 17 103 4 95 123 75z m359
-61 c30 -5 55 -11 56 -13 3 -6 -31 -188 -35 -184 -3 3 -25 7 -50 11 -87 12
-125 18 -129 22 -4 4 18 150 26 172 6 14 25 13 132 -8z m-2489 -125 c21 -7 34
-18 32 -26 -2 -8 -6 -21 -8 -29 -2 -8 -11 -46 -21 -83 -16 -66 -18 -68 -43
-62 -101 26 -155 10 -188 -56 -20 -41 -21 -55 -17 -219 5 -182 11 -296 20
-342 2 -15 1 -29 -3 -32 -5 -3 -54 -8 -109 -11 -119 -8 -109 -19 -118 130 -4
55 -8 123 -11 150 -7 83 -13 165 -18 255 -6 81 -12 155 -22 248 -3 29 0 42 8
43 7 1 22 3 33 4 91 11 155 13 159 7 3 -5 6 -30 7 -57 3 -46 3 -47 18 -26 38
54 73 90 103 104 39 20 129 21 178 2z m-1020 -137 c68 -31 111 -67 151 -125
33 -48 83 -175 92 -235 6 -41 8 -40 -68 -53 -16 -3 -115 -21 -220 -41 -104
-19 -204 -38 -222 -41 l-31 -5 16 -44 c40 -109 140 -158 236 -115 46 20 65 44
76 96 l6 30 113 3 113 3 -7 -33 c-23 -106 -112 -210 -210 -247 -283 -106 -502
9 -569 299 -22 95 -16 241 13 305 35 78 68 121 128 162 74 51 148 72 248 69
61 -2 93 -8 135 -28z m3267 18 c18 -4 35 -7 38 -7 13 1 101 -42 141 -69 200
-138 225 -471 49 -659 -133 -142 -327 -174 -514 -85 -159 77 -233 196 -232
373 2 228 128 401 324 445 55 13 141 13 194 2z m-4785 -31 c41 -152 99 -359
102 -362 2 -2 15 16 30 41 90 154 330 201 450 88 53 -49 77 -113 156 -402 39
-146 73 -272 76 -281 4 -13 -15 -22 -89 -43 -51 -14 -99 -26 -107 -26 -11 0
-34 69 -83 253 -38 138 -77 271 -88 294 -32 69 -79 91 -156 71 -89 -22 -142
-108 -128 -207 5 -41 35 -155 106 -414 13 -46 18 -81 13 -86 -10 -10 -196 -62
-201 -57 -2 2 -10 27 -18 57 -8 30 -71 261 -140 514 -69 253 -128 467 -130
475 -2 8 -6 26 -10 40 -6 25 -3 27 82 52 108 33 125 32 135 -7z m5658 -186
c25 -7 49 -16 53 -19 5 -4 2 -31 -7 -59 l-15 -51 37 29 c80 65 155 72 243 25
78 -43 78 -43 14 -134 -31 -44 -59 -80 -62 -80 -3 0 -18 11 -34 25 -16 13 -45
27 -64 31 -108 20 -160 -56 -240 -346 -2 -8 -13 -49 -24 -90 -12 -41 -26 -94
-32 -118 -9 -32 -16 -41 -28 -38 -9 2 -29 8 -46 12 -16 4 -32 8 -35 9 -3 0
-30 9 -61 18 l-56 17 28 102 c16 57 33 119 39 138 5 19 41 152 80 294 39 143
73 263 76 267 2 4 23 2 47 -5 23 -8 62 -19 87 -27z m1448 -166 l41 -18 -65
-165 c-36 -91 -72 -178 -79 -195 -10 -22 -249 -617 -282 -701 -3 -8 -34 1 -91
24 -48 19 -91 38 -95 42 -4 4 1 28 13 54 11 26 20 49 20 51 0 2 -25 -7 -56
-21 -54 -24 -135 -32 -191 -20 -158 35 -264 190 -250 369 7 89 9 98 43 183 42
106 100 189 165 237 162 120 403 61 488 -118 l19 -40 19 45 c11 25 46 111 78
192 l58 147 62 -24 c35 -13 81 -31 103 -42z m-7660 -202 c46 -14 91 -43 135
-89 l38 -39 -93 -60 -93 -60 -18 24 c-67 84 -211 61 -265 -42 -38 -73 11 -255
95 -352 69 -79 181 -83 253 -8 32 33 35 42 37 102 1 36 4 67 5 68 7 4 202 45
204 42 9 -8 10 -103 2 -149 -17 -101 -73 -180 -166 -235 -244 -145 -480 -74
-602 181 -117 246 -52 476 163 577 116 53 218 67 305 40z m8147 -376 c214 -73
321 -237 285 -436 -12 -65 -64 -204 -81 -215 -9 -5 -67 22 -335 162 l-162 84
-11 -28 c-40 -97 -2 -205 86 -244 52 -23 92 -18 140 19 l33 24 82 -61 c46 -34
85 -66 86 -71 8 -20 -89 -79 -160 -98 -161 -41 -393 77 -466 239 -35 77 -35
197 1 292 64 174 180 297 315 333 47 13 150 13 187 0z m-9102 -105 c26 -13 54
-31 62 -40 17 -18 18 -17 -92 -108 -50 -42 -53 -43 -76 -27 -44 29 -87 27
-154 -5 -92 -46 -138 -111 -101 -148 23 -23 125 -7 293 48 86 28 214 31 260 7
74 -38 126 -123 127 -209 2 -104 -46 -191 -146 -265 -198 -146 -374 -166 -518
-60 -36 27 -35 37 7 66 19 13 47 34 62 48 63 55 67 56 108 28 54 -36 103 -36
175 0 51 26 94 68 108 105 11 29 -9 79 -33 81 -8 1 -21 2 -27 3 -7 1 -33 -4
-58 -11 -225 -67 -340 -84 -405 -63 -58 19 -121 83 -141 142 -20 61 -15 138
14 194 40 79 183 184 307 226 71 24 167 19 228 -12z m-1034 -233 c29 -43 51
-80 49 -81 -18 -15 -161 -108 -172 -112 -18 -7 -122 154 -108 168 25 25 168
115 173 109 4 -3 30 -41 58 -84z m11013 -185 c4 -4 -6 -28 -21 -53 l-29 -46
69 21 c66 19 71 19 115 3 54 -20 93 -50 123 -96 26 -39 30 -33 -69 -110 l-65
-51 -15 23 c-28 41 -72 75 -106 82 -88 16 -161 -63 -380 -407 -27 -43 -52 -77
-57 -78 -11 0 -177 110 -177 118 0 6 323 510 361 563 6 9 29 44 50 77 l39 61
78 -50 c42 -28 80 -53 84 -57z m-10782 -170 c63 -97 166 -255 228 -350 62 -96
112 -175 110 -176 -12 -10 -179 -116 -182 -116 -2 0 -32 44 -67 98 -145 224
-230 354 -303 466 -43 66 -80 124 -82 130 -3 9 157 122 176 125 3 0 57 -79
120 -177z m11305 -179 c46 -38 84 -73 85 -79 0 -12 -134 -414 -169 -503 -11
-30 -19 -56 -17 -58 1 -2 14 5 27 15 21 16 304 187 439 265 l46 26 88 -70 88
-71 -84 -48 c-289 -166 -692 -390 -701 -390 -11 0 -66 43 -128 100 l-28 25 45
145 c24 80 58 190 75 245 17 55 48 156 69 225 21 69 46 151 55 183 9 31 19 57
21 57 3 0 43 -30 89 -67z m-5525 -67 c25 -2 91 -6 147 -10 57 -4 111 -9 121
-11 10 -2 54 -6 98 -9 43 -3 88 -8 99 -10 11 -2 47 -7 80 -10 86 -9 138 -16
155 -21 8 -2 39 -7 69 -10 30 -4 63 -9 75 -11 12 -2 37 -7 56 -10 75 -12 250
-46 355 -70 61 -13 120 -26 133 -29 13 -2 32 -7 42 -10 10 -3 27 -7 37 -10
195 -37 686 -194 1028 -328 654 -257 1401 -681 1925 -1094 55 -43 297 -239
306 -248 6 -5 24 -21 40 -34 240 -200 607 -567 844 -846 187 -219 189 -222
369 -460 67 -88 371 -535 382 -561 2 -5 34 -58 70 -119 36 -60 81 -137 99
-170 18 -33 46 -85 63 -115 191 -346 405 -843 547 -1270 81 -244 191 -636 215
-768 5 -29 22 -114 31 -152 5 -22 33 -173 48 -255 35 -199 68 -463 91 -740 20
-238 25 -709 12 -1000 -9 -174 -11 -207 -32 -435 -14 -153 -68 -523 -100 -680
-129 -652 -311 -1224 -582 -1823 -52 -116 -229 -462 -300 -587 -95 -168 -102
-180 -174 -295 -150 -240 -517 -757 -579 -815 -3 -3 -24 -27 -45 -55 -22 -27
-42 -52 -45 -55 -3 -3 -32 -36 -65 -75 -33 -38 -78 -90 -101 -115 -22 -25 -69
-76 -104 -115 -76 -84 -328 -334 -425 -424 -39 -35 -90 -82 -115 -105 -41 -37
-142 -125 -195 -167 -11 -10 -49 -41 -85 -71 -190 -158 -617 -465 -790 -568
-14 -8 -52 -31 -84 -50 -234 -142 -364 -214 -596 -330 -184 -93 -388 -185
-555 -252 -55 -22 -113 -46 -130 -53 -173 -75 -771 -263 -985 -309 -14 -3
-106 -24 -205 -45 -167 -37 -438 -88 -509 -96 -17 -2 -85 -10 -151 -19 -158
-21 -187 -24 -270 -31 -38 -4 -86 -8 -105 -10 -274 -27 -1095 -27 -1315 -1
-16 2 -70 7 -119 11 -50 4 -98 8 -107 10 -10 2 -49 7 -86 10 -37 4 -75 9 -85
10 -9 2 -38 6 -65 10 -26 4 -88 13 -138 21 -49 8 -103 17 -120 20 -29 5 -82
13 -118 20 -10 2 -26 5 -35 8 -9 3 -34 7 -56 11 -21 3 -41 7 -45 9 -3 2 -22 7
-41 10 -49 7 -154 31 -295 67 -66 17 -128 33 -139 35 -68 13 -553 171 -721
234 -860 323 -1676 808 -2390 1419 -295 253 -660 620 -886 891 -34 41 -65 77
-68 80 -40 33 -521 683 -521 704 0 2 -22 36 -49 77 -48 74 -149 238 -192 314
-110 194 -153 274 -233 435 -186 376 -325 715 -449 1095 -60 183 -149 502
-172 615 -2 8 -10 42 -18 75 -15 59 -75 356 -82 405 -2 14 -8 52 -14 85 -5 33
-13 80 -16 105 -3 25 -8 56 -10 70 -6 31 -13 88 -20 160 -3 30 -8 71 -10 90
-8 57 -13 110 -20 205 -4 50 -9 106 -10 125 -21 210 -21 831 0 1080 1 19 6 73
9 120 12 146 22 245 31 310 3 22 22 161 30 215 4 33 27 179 31 200 2 11 8 45
14 75 6 30 12 64 14 75 7 35 48 229 51 245 18 85 95 374 136 507 307 1022 791
1936 1466 2767 59 72 109 133 112 136 3 3 24 25 45 50 230 265 508 543 817
816 170 150 523 420 754 576 600 405 1251 726 1930 953 251 84 641 192 830
229 17 4 41 9 55 12 70 15 452 83 495 88 28 4 66 8 85 11 163 22 238 30 350
40 41 3 93 8 115 10 22 3 99 7 170 11 72 3 131 7 133 9 4 3 709 -4 762 -9z
m-6327 -45 c26 -13 46 -27 45 -32 -2 -5 -30 -40 -63 -79 -51 -60 -64 -69 -85
-64 -70 15 -90 15 -126 -2 -49 -23 -134 -109 -134 -135 0 -34 19 -59 45 -59
29 0 129 37 202 74 81 41 200 76 257 76 64 0 118 -30 163 -88 87 -114 64 -267
-59 -391 -153 -154 -327 -211 -465 -151 -85 36 -85 39 1 127 l75 78 31 -19
c76 -44 182 -5 255 95 43 57 8 138 -54 122 -22 -5 -118 -46 -196 -83 -11 -5
-56 -21 -100 -36 -160 -52 -271 -8 -323 130 -48 124 13 250 179 373 130 96
243 116 352 64z m-746 -701 c73 -34 97 -51 171 -122 l52 -51 -38 -36 c-21 -20
-83 -76 -137 -126 -54 -49 -103 -95 -109 -101 -6 -5 -36 -33 -68 -61 l-56 -51
21 -20 c90 -82 213 -73 275 19 19 27 23 43 19 79 -2 25 -7 52 -11 60 -4 11 20
31 83 73 49 31 91 57 94 57 3 0 13 -25 22 -55 48 -152 -29 -322 -195 -427 -74
-47 -122 -61 -201 -61 -113 2 -213 55 -318 169 -134 147 -171 312 -103 457 91
195 315 284 499 197z m13468 29 c111 -25 217 -114 273 -229 23 -47 27 -68 27
-145 0 -82 -3 -97 -32 -156 -35 -71 -107 -170 -136 -189 -16 -9 -29 -1 -95 64
-42 41 -88 84 -102 96 -14 12 -59 54 -100 93 -124 118 -116 114 -140 86 -11
-13 -26 -45 -34 -70 -20 -65 -6 -123 41 -171 44 -46 87 -56 147 -36 l44 15 61
-81 c34 -45 62 -85 62 -91 0 -5 -24 -18 -53 -28 -137 -48 -264 -13 -384 107
-150 150 -168 319 -55 493 120 184 309 280 476 242z m763 -752 l33 -39 -42
-36 -41 -37 80 0 c75 0 83 -2 119 -31 39 -31 77 -89 88 -134 6 -24 1 -28 -82
-63 -49 -20 -91 -37 -95 -37 -3 0 -9 12 -13 27 -9 39 -42 81 -77 99 -59 31
-144 -3 -258 -102 -103 -90 -245 -220 -248 -227 -2 -4 -13 -12 -23 -18 -17 -9
-28 -2 -77 52 -31 35 -64 71 -74 80 -15 16 -14 19 20 51 21 18 107 96 192 173
85 77 208 189 274 249 l119 109 36 -39 c20 -21 51 -56 69 -77z m-15043 -23
c21 -9 55 -28 74 -42 38 -28 278 -220 297 -237 6 -5 45 -37 87 -70 43 -33 77
-63 77 -66 0 -4 -30 -44 -66 -88 -41 -51 -70 -79 -77 -74 -10 5 -56 42 -177
140 -8 7 -58 46 -110 88 -52 41 -100 80 -107 85 -111 91 -228 52 -257 -87 -19
-86 21 -136 249 -320 142 -114 181 -146 193 -157 10 -10 0 -29 -55 -98 l-69
-85 -76 61 c-320 258 -433 349 -500 404 l-77 63 66 80 66 80 26 -23 c64 -58
63 -58 58 6 -7 94 10 153 67 231 43 58 88 94 147 114 58 21 107 19 164 -5z
m15518 -632 c157 -73 254 -258 221 -419 -22 -107 -80 -190 -194 -278 l-59 -45
-44 62 c-79 113 -181 262 -227 330 l-45 66 -33 -31 c-70 -67 -85 -134 -46
-213 31 -65 74 -89 144 -81 l46 6 45 -97 c34 -71 43 -99 34 -104 -24 -14 -110
-18 -165 -7 -74 15 -127 47 -189 115 -141 155 -166 338 -64 485 42 62 52 73
113 121 153 122 325 155 463 90z m-16521 -63 c43 -28 78 -54 78 -58 0 -11
-110 -176 -118 -176 -12 0 -162 100 -162 108 0 14 105 176 114 177 6 0 45 -23
88 -51z m262 -171 c45 -28 153 -99 241 -156 88 -58 209 -136 268 -175 59 -38
106 -73 105 -77 -10 -24 -114 -180 -119 -178 -6 3 -252 163 -528 344 l-170
111 57 91 c31 51 59 92 61 92 2 0 40 -23 85 -52z m17136 -472 c28 -49 49 -90
48 -91 -2 -2 -21 -13 -43 -26 -22 -12 -59 -33 -83 -47 -34 -19 -45 -22 -57
-12 -8 7 -15 16 -15 20 0 4 -20 41 -44 81 l-44 73 29 18 c16 10 34 18 39 18 6
0 10 5 10 10 0 6 6 10 13 11 6 0 28 11 47 24 19 12 38 20 42 16 3 -3 29 -46
58 -95z m-17409 -60 c30 -4 94 -34 185 -84 76 -43 166 -93 199 -111 33 -19 65
-37 70 -41 6 -4 37 -22 70 -40 33 -18 63 -35 67 -39 6 -5 -79 -169 -99 -190
-2 -3 -16 2 -31 11 -15 9 -47 27 -72 40 -25 14 -114 64 -198 112 -184 105
-232 126 -269 120 -65 -11 -123 -87 -123 -162 0 -83 47 -134 215 -229 283
-159 313 -178 306 -193 -3 -8 -25 -50 -49 -93 -42 -75 -63 -91 -88 -68 -5 5
-27 19 -49 31 -96 54 -139 78 -280 160 -82 47 -157 89 -165 93 -8 4 -31 17
-50 28 -19 12 -122 70 -227 131 -106 60 -193 112 -193 115 0 11 102 183 108
183 4 0 48 -23 97 -51 50 -28 110 -62 135 -76 25 -14 65 -37 89 -51 l44 -26
-7 30 c-34 132 9 269 111 354 37 30 114 60 143 55 8 -1 36 -5 61 -9z m17090
-23 c8 -16 31 -58 52 -95 35 -62 40 -88 17 -88 -4 0 -63 -31 -130 -70 -67 -38
-124 -70 -126 -70 -3 0 -30 -16 -60 -35 -30 -19 -56 -35 -58 -35 -2 0 -74 -41
-161 -91 -87 -49 -163 -88 -169 -86 -6 3 -18 17 -26 33 -8 16 -30 53 -47 83
-18 30 -33 58 -33 62 0 4 93 60 208 124 114 65 227 130 252 145 25 15 71 42
103 59 32 18 79 45 105 61 26 16 50 29 53 29 4 1 13 -11 20 -26z m353 -621
l34 -80 -54 -24 -54 -25 44 -17 c161 -62 259 -253 205 -400 -23 -62 -56 -96
-128 -134 -91 -49 -545 -243 -557 -238 -6 2 -28 45 -49 96 -44 106 -50 93 63
142 35 16 78 34 95 42 18 7 77 33 132 56 221 94 262 129 252 216 -8 75 -67
135 -145 147 -47 8 -108 -13 -345 -114 -115 -49 -212 -89 -216 -89 -5 0 -27
43 -51 96 -33 77 -39 98 -28 105 7 5 114 52 238 105 124 54 290 126 370 160
113 49 146 60 152 49 5 -7 23 -49 42 -93z m-17902 -351 c14 -1 15 -6 8 -31 -5
-17 -9 -34 -9 -38 -2 -19 -14 -81 -22 -112 -8 -34 -11 -35 -46 -32 -138 12
-207 -198 -94 -287 70 -55 184 -100 267 -106 94 -7 171 56 181 150 7 58 -10
98 -58 136 l-38 30 53 87 c30 48 61 88 69 90 25 5 123 -112 147 -175 42 -111
11 -277 -74 -391 -60 -81 -123 -122 -221 -142 -185 -38 -452 84 -528 242 -35
75 -40 95 -39 165 1 77 15 130 52 208 38 78 81 129 137 162 49 28 127 50 171
47 15 -1 35 -3 44 -3z m18867 -1312 c61 -226 111 -413 109 -414 -2 -2 -44 -14
-95 -28 l-91 -25 -10 36 c-56 213 -76 287 -110 410 -22 79 -42 146 -45 149 -6
5 -229 -56 -238 -66 -4 -3 27 -125 67 -271 40 -146 74 -270 74 -275 0 -10
-177 -62 -184 -54 -3 3 -61 207 -71 249 -4 15 -16 59 -55 205 -12 44 -25 84
-30 88 -7 8 -276 -59 -292 -73 -4 -3 -3 -21 3 -40 5 -19 12 -42 14 -50 2 -8
29 -107 60 -220 82 -296 86 -311 72 -315 -93 -30 -171 -45 -177 -35 -4 7 -18
51 -30 99 -12 47 -36 133 -52 191 -16 58 -31 113 -33 123 -2 9 -15 59 -29 110
-70 252 -86 311 -83 313 2 2 190 54 212 59 6 1 30 7 55 14 25 7 52 15 60 16 8
2 186 51 395 109 209 57 383 105 386 105 3 1 56 -184 118 -410z m-19009 110
c-37 -110 -70 -202 -73 -205 -7 -7 -195 54 -202 65 -3 6 72 238 130 398 3 8
35 2 109 -23 l104 -35 -68 -200z m-153 -519 c135 -33 251 -60 257 -60 7 0 20
-6 30 -13 17 -12 16 -18 -8 -111 -14 -55 -27 -100 -29 -102 -1 -2 -113 24
-247 57 -272 68 -348 79 -386 59 -57 -31 -86 -131 -58 -200 35 -82 73 -100
380 -176 126 -31 231 -58 233 -60 4 -3 -40 -190 -49 -204 -3 -5 -55 4 -120 21
-63 16 -124 31 -135 33 -11 2 -96 23 -190 46 -93 23 -174 43 -180 44 -5 1
-119 29 -252 62 l-242 59 6 39 c3 22 14 69 23 105 19 78 7 76 180 33 265 -66
265 -66 236 -33 -22 26 -47 104 -50 156 -8 134 64 261 171 301 61 23 163 10
430 -56z m19058 -559 c8 -52 14 -95 13 -96 -3 -3 -77 -17 -95 -18 -20 -1 -16
-4 31 -27 97 -46 137 -123 120 -228 l-9 -57 -50 3 c-27 1 -74 7 -103 13 -50
10 -52 11 -45 37 20 76 -3 142 -61 170 -48 24 -187 18 -346 -14 -122 -24 -252
-45 -257 -41 -10 10 -43 201 -35 207 4 4 61 17 127 29 140 26 160 29 200 36
17 3 75 14 130 25 55 10 118 21 140 24 22 4 47 8 55 11 8 2 31 7 50 10 19 3
53 9 75 13 22 4 41 5 42 2 1 -3 9 -47 18 -99z m-19544 -488 c0 -34 8 -129 13
-164 3 -22 -1 -27 -40 -38 -38 -11 -92 -57 -95 -79 0 -4 -3 -29 -5 -55 -10
-88 45 -160 143 -186 60 -16 185 -21 234 -9 88 21 139 84 139 171 0 57 -32
105 -89 134 -24 12 -45 24 -48 26 -7 8 50 207 59 207 5 0 34 -13 66 -29 152
-77 216 -219 188 -415 -28 -195 -174 -321 -384 -330 -191 -8 -362 69 -436 197
-80 138 -62 366 38 485 33 38 99 79 159 97 57 18 57 19 58 -12z m19970 -205
c2 -51 10 -148 13 -175 4 -30 2 -33 -22 -34 -15 0 -34 -2 -43 -4 -8 -1 -67 -6
-130 -10 -129 -8 -148 -10 -274 -20 -108 -8 -152 -11 -270 -20 -49 -4 -106 -8
-125 -10 -19 -2 -78 -6 -130 -10 -52 -4 -110 -8 -127 -10 -25 -2 -33 2 -34 14
0 9 -2 39 -4 66 -9 142 -9 142 8 142 21 0 220 14 257 18 19 2 78 6 130 9 52 4
111 9 130 11 19 2 80 7 135 11 55 3 116 7 135 9 19 2 82 6 140 10 58 4 106 8
107 9 2 1 25 3 53 5 35 1 50 -2 51 -11z m-800 -560 c101 -34 140 -99 194 -322
14 -59 32 -124 40 -143 14 -34 17 -35 52 -28 71 12 84 29 97 119 5 37 -14 110
-35 132 -12 12 -34 28 -49 34 -22 9 -27 17 -24 33 2 12 6 38 9 57 16 121 16
121 39 114 164 -50 227 -154 228 -379 1 -133 -19 -201 -75 -259 -64 -66 -54
-65 -498 -80 -126 -5 -195 -17 -251 -47 -16 -9 -18 -4 -19 38 -1 26 -2 75 -3
108 -1 51 2 62 19 72 11 7 28 12 37 13 29 0 27 14 -7 53 -65 73 -99 224 -71
317 23 78 82 144 151 168 41 14 125 14 166 0z m-18826 -309 c98 -48 154 -134
171 -264 24 -181 -14 -334 -103 -415 -31 -29 -124 -82 -131 -76 -2 3 -42 206
-42 217 0 4 10 9 23 13 62 15 99 76 99 165 1 114 -47 182 -112 159 -30 -10
-32 -13 -74 -198 -47 -201 -77 -262 -154 -307 -60 -35 -157 -37 -218 -6 -107
56 -155 165 -156 350 0 106 21 191 60 243 33 44 46 55 103 85 l47 24 8 -37 c4
-20 8 -41 10 -47 30 -123 30 -131 1 -139 -38 -9 -69 -77 -69 -151 0 -85 25
-139 67 -143 24 -2 33 3 46 25 15 26 35 93 45 153 23 128 66 255 105 303 55
71 181 92 274 46z m18710 -745 c59 -6 127 -12 193 -19 26 -2 79 -7 117 -10 39
-4 84 -8 100 -10 34 -4 203 -18 223 -18 11 0 13 -19 7 -96 -4 -53 -9 -100 -12
-104 -3 -5 -32 -5 -64 -2 l-59 7 30 -34 c56 -61 84 -131 84 -217 1 -132 -49
-228 -141 -271 -52 -24 -146 -30 -273 -16 -36 3 -92 9 -125 12 -33 3 -74 7
-92 9 -18 3 -67 7 -110 10 -43 3 -87 8 -98 10 -11 2 -24 4 -28 4 -7 1 -2 133
7 198 4 23 34 22 356 -12 25 -3 90 -7 145 -10 87 -4 104 -2 132 15 69 42 87
118 46 200 -39 78 -79 95 -268 115 -113 12 -140 14 -225 21 -47 4 -92 8 -100
10 -8 1 -23 3 -33 3 -18 1 -18 8 -12 92 6 77 9 107 14 127 1 3 56 -1 186 -14z
m-18527 -181 c49 -127 41 -255 -21 -321 -33 -35 -122 -55 -302 -67 -65 -4
-238 -18 -260 -20 -11 -1 -27 -3 -35 -4 -12 -1 -14 -12 -12 -50 4 -56 3 -56
-108 -56 -70 0 -67 -3 -69 62 l-1 33 -83 -6 -84 -7 -72 103 c-40 56 -71 104
-69 105 2 2 50 7 108 11 58 4 116 8 130 9 14 2 31 3 39 4 10 1 12 17 8 76 -2
41 -2 75 2 76 3 0 35 2 71 5 36 2 73 6 83 8 14 4 17 -4 19 -47 0 -29 2 -56 3
-62 2 -5 3 -17 4 -26 1 -13 9 -16 34 -14 17 2 70 6 117 9 131 10 222 17 256
21 82 7 101 36 74 107 l-18 47 27 5 c14 3 44 9 66 12 22 3 42 8 44 10 13 13
40 0 49 -23z m75 -728 c3 -16 10 -54 16 -84 16 -80 17 -79 -44 -86 -56 -7 -70
-19 -36 -30 38 -12 110 -91 137 -149 70 -153 23 -312 -109 -374 -23 -11 -69
-25 -102 -33 -33 -7 -64 -14 -70 -15 -18 -4 -239 -44 -330 -60 -49 -9 -104
-20 -122 -24 -35 -9 -37 -7 -47 60 -3 19 -10 59 -16 89 -6 30 -7 58 -3 61 5 4
37 12 73 18 78 13 118 21 146 27 12 3 39 7 60 10 21 4 47 9 57 11 10 3 35 8
55 10 20 3 45 7 54 10 9 3 25 6 35 8 56 11 103 28 126 46 74 59 41 202 -58
253 -42 21 -117 16 -325 -23 -231 -43 -220 -41 -259 -43 -27 -2 -34 2 -37 18
-7 47 -26 152 -30 171 -3 13 0 21 8 21 7 0 24 3 38 6 14 3 66 13 115 22 50 9
99 19 110 21 10 2 35 6 55 9 19 4 136 25 260 49 124 23 228 40 232 37 3 -3 9
-19 11 -36z m18113 -118 c2 -2 -15 -55 -39 -117 -40 -108 -44 -114 -76 -123
-42 -10 -66 -39 -82 -97 -29 -102 -8 -179 55 -205 40 -17 180 -54 185 -49 2 1
-6 15 -16 31 -37 53 -52 107 -49 179 10 281 330 399 645 240 76 -39 127 -90
164 -165 28 -58 32 -75 31 -146 0 -67 -5 -90 -28 -137 -28 -58 -86 -119 -132
-140 -34 -16 -30 -27 15 -34 62 -10 62 -10 36 -113 -13 -51 -25 -95 -28 -97
-2 -2 -42 5 -88 16 -46 12 -91 23 -100 25 -26 5 -211 51 -349 85 -69 17 -138
34 -154 37 -68 12 -214 66 -257 95 -80 54 -121 138 -120 242 2 137 55 309 123
395 23 30 81 70 117 82 25 8 138 5 147 -4z m-18051 -932 c145 -38 236 -145
269 -315 38 -195 -37 -340 -219 -426 -219 -103 -447 -70 -564 82 -56 73 -75
135 -75 249 -1 91 2 105 27 156 35 68 74 111 142 155 54 34 209 93 219 83 4
-3 22 -66 42 -140 89 -326 104 -383 108 -386 5 -5 73 30 97 49 103 82 58 278
-63 278 -34 0 -36 4 -43 81 -3 35 -7 83 -9 107 -3 23 -1 42 3 42 4 0 34 -7 66
-15z m18180 -199 c291 -56 455 -287 375 -527 -79 -233 -282 -319 -552 -232
-27 8 -48 17 -48 19 0 3 36 112 81 242 45 130 83 245 86 256 18 58 -145 46
-206 -16 -61 -63 -65 -141 -8 -204 l31 -36 -49 -94 c-27 -52 -52 -94 -56 -94
-18 0 -85 82 -111 137 -39 81 -41 179 -6 278 78 221 237 314 463 271z m-17815
-856 c110 -33 196 -112 258 -235 34 -66 202 -455 202 -466 0 -10 -39 -27 -405
-184 -176 -76 -342 -147 -370 -160 -187 -82 -277 -117 -284 -109 -4 5 -25 50
-46 99 -21 50 -45 108 -55 130 -104 238 -128 306 -133 384 -9 120 44 243 148
344 45 44 157 114 232 146 183 78 314 93 453 51z m17390 -133 c231 -106 318
-146 410 -189 58 -27 106 -51 108 -52 2 -2 -75 -173 -83 -183 -1 -2 -24 8 -51
21 -27 13 -50 23 -52 22 -1 -2 5 -23 13 -47 56 -155 -10 -334 -150 -408 -65
-34 -145 -27 -258 23 -47 21 -133 60 -212 96 -38 18 -117 55 -175 81 -76 35
-104 53 -102 65 5 24 81 184 87 184 4 0 54 -22 112 -50 58 -27 107 -50 109
-50 2 0 52 -23 111 -51 160 -75 216 -92 262 -79 110 29 136 195 43 277 -26 23
-206 114 -392 198 -47 21 -91 44 -98 50 -10 9 -4 31 32 108 l45 96 93 -43 c51
-24 118 -55 148 -69z m-15324 -1824 c-10 -100 -17 -157 -21 -161 -3 -3 -139
-40 -205 -56 -8 -2 -93 -25 -188 -50 -96 -25 -177 -46 -182 -46 -12 0 0 214
12 221 9 6 194 56 236 64 9 2 18 4 20 4 1 1 3 1 5 0 1 0 15 4 30 10 15 6 40
13 55 16 15 3 74 18 132 34 58 16 107 30 109 30 2 1 0 -29 -3 -66z m13621 -21
c4 -20 8 -39 8 -42 1 -3 7 -31 14 -63 7 -32 11 -60 9 -61 -1 -2 -131 -66 -287
-142 -156 -76 -360 -177 -454 -224 l-171 -85 -253 -439 c-138 -241 -254 -441
-257 -443 -7 -8 -196 57 -196 67 0 9 46 96 60 115 5 6 21 33 37 61 23 42 91
160 217 377 10 18 55 95 99 172 45 77 88 154 97 171 41 78 45 80 556 334 274
136 502 245 506 243 4 -2 11 -20 15 -41z m-13382 -287 c34 -31 201 -190 294
-279 l83 -81 30 34 c16 18 31 31 33 29 2 -1 40 -36 84 -77 81 -74 92 -93 69
-108 -7 -4 -20 -16 -27 -26 -14 -17 -12 -21 17 -47 17 -15 103 -95 189 -177
87 -83 189 -180 228 -216 l69 -66 -21 -23 c-12 -13 -44 -47 -71 -77 l-51 -54
-72 69 c-40 38 -87 83 -104 99 -18 17 -72 68 -121 115 -49 47 -119 113 -155
148 l-66 62 -46 -46 -45 -47 36 -35 c21 -18 104 -98 186 -175 82 -78 171 -163
198 -189 l50 -48 -79 -82 c-183 -191 -273 -285 -306 -322 -24 -25 -40 -36 -49
-30 -7 4 -42 36 -78 70 -36 35 -90 86 -120 115 -30 28 -91 86 -135 128 -45 42
-161 153 -259 246 -99 94 -222 211 -275 261 -53 50 -126 120 -163 155 l-67 64
92 96 c51 52 146 152 212 222 l120 127 55 -51 c124 -115 355 -336 374 -356 11
-13 24 -23 30 -23 13 0 86 71 86 84 0 6 -28 37 -62 70 -170 160 -384 364 -405
384 l-23 23 72 75 72 74 50 -47 c27 -27 59 -57 71 -68z m13534 -72 l71 -78
-62 -60 c-96 -91 -491 -463 -547 -514 -22 -21 -94 -88 -345 -324 -23 -22 -90
-85 -150 -140 -59 -56 -129 -122 -155 -147 -96 -91 -80 -89 -152 -15 -90 93
-90 90 -33 143 27 24 108 100 179 167 72 68 146 137 165 155 39 36 279 261
319 300 15 14 98 92 186 175 88 82 192 179 230 216 163 155 210 199 217 199 3
0 38 -35 77 -77z m-14263 -110 c-3 -21 -8 -72 -12 -113 -3 -41 -7 -76 -8 -77
-3 -4 -402 -103 -416 -103 -9 0 -30 16 -49 35 l-32 35 -54 -57 c-30 -32 -52
-59 -51 -61 2 -2 40 6 84 17 44 12 85 21 91 21 16 0 102 -83 99 -96 -2 -7 -43
-55 -93 -106 -49 -52 -160 -168 -245 -258 -85 -90 -170 -179 -188 -198 l-32
-34 -89 84 c-49 46 -86 88 -82 94 3 7 71 80 151 164 80 84 160 169 179 189 18
20 51 55 73 77 l40 41 3 108 c2 59 6 110 10 113 3 3 144 41 313 83 169 43 308
78 310 78 1 1 0 -16 -2 -36z m14696 -173 c1 -5 29 -36 60 -68 l58 -59 -68 -63
c-37 -35 -123 -115 -191 -179 -68 -64 -140 -131 -160 -150 -20 -18 -97 -91
-171 -161 -74 -70 -151 -142 -170 -160 -19 -18 -97 -92 -174 -164 -76 -72
-148 -139 -159 -148 -19 -17 -19 -20 63 -210 104 -242 112 -259 121 -256 4 2
74 66 156 144 81 77 160 152 174 165 15 13 84 79 155 145 71 67 145 136 164
154 19 18 95 89 169 159 73 69 138 129 144 133 14 9 16 8 -73 58 -41 23 -76
43 -78 45 -3 3 18 91 44 183 l15 52 62 -34 c247 -135 412 -227 416 -231 2 -3
-15 -24 -40 -47 -24 -22 -100 -93 -167 -157 -68 -64 -143 -134 -167 -156 -62
-59 -291 -274 -339 -319 -22 -21 -94 -88 -160 -150 -65 -61 -135 -127 -155
-146 -59 -56 -301 -283 -361 -339 -30 -28 -57 -51 -60 -51 -3 0 -68 145 -144
323 -76 177 -141 325 -145 329 -3 4 -55 -40 -116 -97 l-110 -104 -72 77 c-40
42 -73 80 -73 83 0 3 44 47 98 97 53 50 118 110 143 134 64 61 307 289 349
328 19 18 96 90 170 160 74 70 151 142 170 160 19 18 94 87 165 155 72 67 159
150 195 183 36 33 101 94 145 135 63 59 83 73 96 66 10 -5 19 -13 21 -19z
m-14809 -341 c17 -17 94 -90 171 -163 76 -72 159 -151 185 -176 107 -102 369
-351 411 -390 25 -23 119 -112 209 -199 89 -86 167 -157 172 -159 20 -8 6 -32
-58 -101 l-68 -71 -70 66 c-101 95 -481 457 -620 589 -29 28 -119 113 -200
190 -82 77 -186 176 -232 220 l-83 80 68 72 c37 40 70 73 75 73 4 0 22 -14 40
-31z m-139 -371 c-2 -29 -3 -84 -3 -121 l-1 -68 -77 -35 c-43 -20 -91 -42
-108 -49 -16 -7 -65 -30 -109 -49 -43 -20 -81 -36 -85 -36 -3 0 -5 24 -4 53 1
28 3 81 4 117 l1 65 57 24 c87 38 324 147 326 150 1 1 0 -23 -1 -51z m353
-325 l42 -38 -80 -85 c-45 -47 -94 -99 -110 -116 -35 -36 -51 -14 144 -198
l137 -129 -63 -64 c-34 -36 -68 -72 -76 -80 -12 -13 -21 -7 -70 40 -74 72
-140 135 -293 280 -71 66 -128 123 -128 126 1 6 46 55 260 280 l105 111 45
-44 c25 -25 64 -62 87 -83z m2306 -207 c427 -220 616 -316 623 -316 5 0 29 38
53 84 l44 84 103 -51 c57 -28 104 -55 104 -60 0 -4 -18 -44 -41 -88 -22 -45
-37 -85 -32 -89 4 -4 125 -67 268 -140 477 -244 510 -261 517 -268 3 -4 -1
-23 -11 -42 -20 -41 -247 -484 -366 -715 -45 -88 -135 -263 -200 -390 -65
-126 -119 -231 -120 -233 -2 -2 -72 32 -157 76 -427 221 -650 334 -652 331 -2
-2 -31 -56 -64 -120 -33 -65 -63 -122 -66 -128 -5 -7 -43 7 -109 40 -56 28
-103 53 -105 54 -2 2 27 62 63 135 36 73 65 133 63 135 -2 1 -111 57 -243 125
-293 150 -549 282 -553 286 -2 1 25 58 61 126 35 67 115 222 177 343 423 825
464 905 473 905 5 0 81 -38 170 -84z m9807 -451 c167 -264 372 -589 457 -723
84 -133 153 -247 153 -252 0 -7 -144 -110 -155 -110 -2 0 -154 237 -215 336
-8 13 -139 218 -290 454 -151 236 -282 441 -290 455 -8 13 -45 72 -82 130 -38
58 -68 109 -68 113 0 4 37 30 82 59 74 46 84 50 94 35 6 -10 147 -233 314
-497z m-11855 431 c72 -17 99 -27 97 -37 -6 -27 -64 -184 -71 -192 -7 -7 -207
35 -218 47 -9 9 68 206 81 206 6 -1 56 -11 111 -24z m11432 -426 c283 -557
521 -1024 588 -1156 l62 -122 -56 -30 c-197 -104 -393 -203 -396 -200 -8 9
-95 177 -95 184 0 5 47 33 105 62 58 29 105 57 105 61 0 4 -42 90 -93 192 -52
101 -194 384 -317 629 -123 245 -225 447 -227 449 -2 3 -46 -18 -98 -45 -86
-44 -95 -51 -91 -74 2 -14 26 -120 54 -235 28 -116 53 -221 56 -235 2 -14 21
-92 41 -175 20 -82 39 -159 41 -170 2 -11 10 -47 18 -80 8 -33 24 -98 35 -145
11 -47 36 -152 56 -235 42 -173 37 -153 64 -270 11 -49 19 -90 18 -91 -7 -6
-222 -72 -225 -69 -2 2 -23 90 -48 197 -24 106 -53 229 -64 273 -11 44 -21 91
-24 105 -2 14 -9 45 -16 70 -7 25 -14 56 -17 70 -2 14 -13 63 -24 110 -40 171
-49 208 -88 375 -21 94 -51 224 -66 290 -15 66 -29 122 -31 124 -1 2 -65 -30
-141 -70 -264 -139 -293 -153 -302 -143 -5 5 -29 48 -54 95 l-45 85 97 51 c53
28 159 83 236 123 77 40 141 74 142 75 1 0 -15 35 -37 76 -22 41 -40 79 -40
85 0 11 218 129 225 122 1 -2 19 -37 40 -78 21 -41 39 -77 41 -79 3 -3 188 89
304 152 58 32 65 34 76 19 6 -9 92 -177 191 -372z m-11091 112 c-7 -11 -28
-63 -32 -77 -3 -14 -115 -299 -118 -302 -6 -7 -236 -25 -236 -19 0 4 28 74 40
101 5 11 23 56 39 100 45 120 66 173 72 180 4 3 35 8 70 12 35 3 65 6 66 7 9
7 103 5 99 -2z m9541 -234 c6 -7 56 -103 113 -213 56 -110 106 -204 111 -209
5 -6 37 6 80 28 39 21 72 36 74 34 1 -2 26 -46 54 -99 57 -109 60 -100 -37
-148 l-62 -31 44 -83 c24 -45 70 -134 103 -197 33 -63 85 -162 115 -220 282
-540 350 -671 347 -674 -26 -20 -205 -104 -210 -99 -4 5 -29 49 -54 98 -26 50
-77 146 -112 215 -36 69 -89 170 -118 225 -29 55 -81 154 -115 220 -144 277
-183 351 -198 377 l-15 27 -73 -39 c-41 -21 -76 -35 -79 -30 -22 36 -95 181
-95 189 0 6 32 27 70 46 39 19 70 38 70 41 0 4 -20 43 -44 88 -97 181 -188
358 -184 360 1 1 32 17 68 36 36 18 79 41 95 51 37 22 40 22 52 7z m-983 -363
c7 -50 14 -87 18 -90 2 -2 37 3 78 10 41 7 78 10 82 7 4 -4 9 -20 12 -37 3
-16 10 -54 16 -84 17 -91 20 -87 -70 -102 l-81 -13 6 -35 c3 -20 12 -70 19
-111 37 -193 47 -247 50 -275 2 -16 7 -43 11 -59 7 -26 11 -28 44 -22 20 3 54
8 76 11 22 3 45 8 52 10 7 2 16 -22 23 -68 7 -40 15 -89 20 -109 l8 -37 -42
-7 c-22 -4 -48 -8 -56 -9 -25 -3 -80 -16 -80 -20 0 -1 7 -40 16 -86 9 -46 18
-95 20 -109 4 -19 36 -199 47 -264 1 -5 -9 -10 -23 -11 -14 -2 -65 -10 -113
-20 -84 -16 -120 -15 -115 2 1 7 -5 49 -18 118 -2 11 -16 84 -30 163 -14 79
-27 149 -30 156 -4 11 -16 11 -67 1 -34 -8 -78 -16 -97 -19 -19 -3 -71 -12
-115 -21 -44 -8 -96 -18 -115 -21 -19 -2 -57 -9 -85 -15 -27 -6 -60 -12 -71
-14 -20 -5 -21 -7 -10 -62 12 -58 12 -59 -47 -233 -33 -96 -63 -179 -68 -184
-4 -5 -47 -10 -96 -13 -48 -2 -100 -5 -115 -7 -16 -3 -28 -3 -28 -2 0 2 27 79
61 172 68 187 66 181 56 243 -8 43 -8 43 -40 36 -51 -11 -181 -35 -193 -35 -6
0 -17 35 -23 78 -7 42 -17 89 -21 104 -9 30 -8 31 65 45 22 4 42 8 45 8 3 1
31 5 63 9 31 5 57 11 57 15 0 3 -4 24 -9 46 -5 22 -12 58 -15 80 -3 22 -8 51
-11 65 -3 14 -12 63 -20 110 -8 47 -17 94 -19 105 -2 11 -6 37 -10 58 -8 43
-5 42 -121 22 -48 -9 -89 -14 -91 -13 -1 2 -5 17 -8 33 -6 28 -27 150 -30 169
0 4 6 10 14 11 90 17 184 36 186 38 1 1 -3 34 -11 72 -7 39 -11 73 -9 76 2 4
46 14 96 23 51 9 105 19 120 22 26 5 27 4 39 -71 l12 -77 46 6 c25 3 55 8 66
10 52 10 250 46 338 62 56 9 101 22 103 29 3 7 0 41 -6 75 -9 48 -9 65 0 70
10 6 43 13 185 37 17 3 32 7 34 9 8 8 19 -19 25 -61z m-4160 -83 l28 -31 -95
-183 c-107 -208 -192 -369 -248 -476 -22 -40 -39 -74 -39 -77 0 -2 19 -6 43
-10 75 -13 91 -16 94 -19 3 -2 -2 -29 -21 -131 -2 -11 -7 -40 -11 -65 -4 -25
-9 -54 -11 -65 -2 -11 -7 -33 -9 -50 -14 -78 -25 -143 -30 -175 -3 -19 -12
-71 -20 -115 -21 -114 -53 -303 -60 -350 -4 -22 -8 -47 -10 -55 -3 -8 -7 -33
-11 -55 -3 -22 -7 -42 -9 -43 -2 -2 -30 2 -62 8 -32 7 -65 14 -73 14 -8 1 -36
6 -62 10 -42 7 -47 11 -43 30 3 11 14 77 26 146 11 69 22 136 25 150 2 14 20
117 40 230 44 256 41 240 48 270 3 14 8 40 10 59 3 19 10 65 17 103 l12 69 32
-31 31 -30 24 50 c13 27 22 52 19 54 -2 2 -25 6 -51 9 -46 6 -48 6 -48 -18 0
-36 -12 -31 -63 25 l-46 51 38 72 c66 124 146 277 226 432 43 83 92 177 110
210 18 33 40 75 49 93 l18 34 51 -55 c29 -30 65 -68 81 -85z m5991 -257 c85
-165 151 -303 147 -306 -4 -3 -42 -25 -84 -47 -51 -27 -80 -37 -85 -30 -3 6
-36 70 -73 142 -37 72 -106 205 -153 296 l-85 166 77 41 c42 23 82 40 89 40 8
-1 83 -137 167 -302z m-5610 269 c22 -4 65 -12 105 -18 57 -9 130 -22 170 -30
14 -3 66 -12 115 -20 86 -15 106 -18 185 -32 19 -4 44 -8 55 -9 11 -2 85 -15
165 -29 80 -14 163 -28 185 -32 22 -3 85 -14 140 -24 55 -10 118 -21 140 -25
66 -9 74 -14 69 -38 -2 -12 -23 -128 -45 -257 -22 -129 -51 -295 -65 -368 -13
-73 -24 -141 -24 -150 -1 -39 -12 -42 -100 -27 -142 24 -312 53 -373 65 -33 6
-60 10 -62 8 -5 -4 -9 -30 -35 -183 -11 -66 -22 -130 -25 -141 -3 -13 1 -24 9
-27 13 -5 333 -62 411 -73 72 -11 76 -13 70 -42 -3 -15 -10 -56 -16 -92 -15
-93 -12 -89 -56 -80 -21 5 -54 11 -73 14 -19 3 -60 10 -90 15 -54 10 -294 51
-296 51 -1 0 -7 -35 -14 -77 -12 -76 -16 -100 -24 -145 -27 -153 -27 -147 -3
-153 12 -3 103 -19 202 -36 99 -17 207 -35 240 -41 33 -6 66 -11 73 -11 8 0
10 -10 7 -31 -12 -60 -14 -71 -21 -121 -5 -27 -7 -53 -6 -57 3 -11 -5 -10
-153 16 -159 28 -225 39 -250 42 -16 3 -52 9 -80 14 -27 5 -63 12 -80 15 -16
3 -68 12 -115 20 -47 8 -95 16 -108 18 -18 3 -148 103 -236 182 -12 11 -41 36
-65 55 -24 19 -50 41 -57 48 -17 17 -30 9 -50 -31 -9 -18 -34 -62 -56 -99
l-38 -67 -87 30 c-47 17 -96 35 -109 40 -24 9 -24 9 70 197 l94 188 32 186
c17 103 33 195 35 205 2 10 4 22 4 27 1 8 31 5 101 -9 13 -2 42 -7 65 -11 22
-3 47 -8 55 -9 8 -2 18 -4 21 -4 5 -1 -9 -96 -46 -300 -2 -13 -7 -44 -11 -68
-7 -47 -10 -49 -38 -28 -11 8 -23 15 -27 15 -4 0 -29 -43 -56 -95 l-48 -95 30
-25 c17 -13 32 -24 35 -25 12 0 81 133 89 172 l6 30 40 -32 c22 -17 60 -48 84
-68 104 -87 196 -160 199 -157 3 3 6 18 17 85 4 25 9 54 11 65 8 43 25 143 35
204 5 35 11 66 13 70 2 3 7 31 11 61 4 30 8 57 10 60 2 3 6 26 9 52 4 26 15
96 26 155 25 135 25 152 3 151 -16 0 -53 5 -117 18 -37 7 -189 33 -226 38 -8
2 -28 5 -45 9 -16 3 -46 9 -65 11 -19 3 -45 8 -56 10 -12 2 -39 7 -60 10 -69
11 -75 15 -69 44 3 15 8 43 10 62 3 19 7 42 10 50 2 8 7 31 10 50 3 19 10 60
15 90 5 30 12 71 15 90 3 19 14 82 25 140 11 58 22 123 25 145 4 22 8 51 11
65 14 81 17 96 17 108 0 13 16 12 102 -4z m2049 -266 c55 -40 103 -75 106 -78
3 -3 44 -35 93 -69 48 -35 90 -68 93 -73 3 -5 -13 -56 -37 -113 l-43 -105 -30
19 c-16 11 -77 54 -135 97 -58 43 -136 100 -173 127 -38 27 -68 54 -68 59 0
12 83 208 88 208 3 0 50 -32 106 -72z m216 -543 c0 -3 7 -38 14 -78 8 -40 20
-99 26 -132 5 -33 12 -71 15 -85 8 -40 44 -241 50 -280 3 -19 18 -100 33 -179
l27 -145 115 -73 c63 -41 135 -86 160 -102 l45 -28 100 18 c55 9 116 20 135
24 175 32 301 55 330 60 19 3 107 19 195 36 88 16 174 32 190 34 17 2 68 11
115 20 47 10 94 18 105 20 11 1 72 12 135 23 63 12 130 24 149 27 19 3 38 8
43 11 10 6 15 -7 23 -61 6 -47 10 -67 20 -117 6 -34 5 -38 -16 -42 -13 -3
-125 -24 -249 -46 -124 -21 -238 -42 -255 -45 -16 -3 -77 -14 -135 -25 -199
-36 -495 -90 -525 -95 -159 -29 -208 -38 -396 -70 -19 -4 -62 18 -173 85 -81
50 -150 90 -154 90 -6 0 -64 -157 -67 -180 -1 -14 -37 -100 -41 -100 -4 0
-155 110 -176 129 -4 3 14 78 40 166 l47 160 -66 362 c-36 200 -67 365 -70
367 -2 2 -26 0 -53 -5 -27 -5 -50 -8 -52 -7 -1 2 -4 17 -7 33 -3 17 -10 61
-17 98 -7 37 -11 70 -9 71 2 2 22 6 44 10 22 3 51 8 65 11 55 11 77 15 110 21
19 3 53 9 75 14 54 11 55 11 55 5z"/>
<path d="M10975 22403 c-34 -8 -81 -50 -99 -86 -15 -33 -22 -117 -11 -129 5
-5 38 0 200 32 28 5 66 12 85 15 19 3 36 8 39 10 2 3 -9 30 -25 62 -41 83
-107 116 -189 96z"/>
<path d="M14314 22383 c-69 -23 -131 -98 -149 -181 -13 -63 -12 -146 2 -188
56 -166 277 -181 358 -25 57 113 57 251 -1 329 -46 60 -138 89 -210 65z"/>
<path d="M16160 21890 c-80 -22 -139 -89 -181 -205 -27 -77 -30 -177 -6 -223
22 -40 81 -79 127 -85 109 -12 202 81 248 249 27 97 19 153 -30 215 -31 38
-109 62 -158 49z"/>
<path d="M17144 21424 c-41 -13 -118 -89 -108 -105 3 -6 69 -41 146 -80 154
-77 152 -77 164 -2 20 134 -81 228 -202 187z"/>
<path d="M12458 18985 c-1 -1 -57 -5 -123 -9 -66 -3 -133 -8 -150 -10 -16 -2
-61 -7 -100 -11 -38 -4 -71 -8 -73 -10 -3 -3 -5 -4088 -3 -4157 1 -17 43 -18
729 -18 l727 0 0 1348 c-1 741 3 1350 7 1353 7 4 154 -20 278 -47 80 -17 284
-68 340 -86 203 -63 414 -139 530 -191 138 -61 186 -84 293 -138 131 -66 304
-164 328 -185 8 -8 19 -14 23 -14 7 0 198 -126 262 -174 23 -17 55 -40 70 -51
38 -27 163 -125 194 -151 367 -313 658 -632 903 -992 293 -428 527 -933 664
-1427 43 -156 98 -414 109 -507 l7 -58 737 0 737 0 -7 48 c-4 26 -11 74 -15
107 -3 33 -10 80 -15 105 -5 25 -11 65 -15 90 -7 55 -52 281 -65 330 -5 19
-12 50 -15 69 -3 19 -8 37 -10 41 -2 3 -6 17 -8 31 -3 13 -26 98 -52 189 -163
568 -402 1104 -723 1615 -41 66 -83 129 -94 141 -10 11 -18 23 -18 27 0 17
-238 335 -364 487 -209 251 -492 540 -721 735 -38 33 -72 63 -75 66 -4 5 -284
224 -315 247 -6 4 -26 19 -45 33 -121 89 -556 369 -574 369 -3 0 -29 14 -58
31 -84 50 -370 191 -513 253 -71 31 -139 61 -150 66 -249 109 -835 286 -1107
334 -15 2 -63 11 -105 20 -43 8 -96 18 -117 21 -21 3 -48 7 -60 10 -12 2 -41
7 -66 10 -25 3 -54 7 -65 9 -11 2 -49 7 -85 11 -36 3 -78 8 -95 10 -16 2 -66
7 -110 11 -44 3 -96 8 -115 10 -41 6 -707 14 -712 9z"/>
<path d="M10745 18665 c-82 -29 -159 -55 -170 -60 -11 -4 -69 -27 -130 -50
-238 -92 -586 -257 -763 -362 -41 -24 -75 -43 -77 -43 -28 0 -681 -442 -725
-490 -3 -3 -52 -44 -110 -92 -406 -333 -790 -738 -1085 -1148 -154 -212 -321
-473 -420 -655 -104 -191 -252 -497 -301 -625 -9 -25 -21 -49 -26 -54 -4 -6
-8 -16 -8 -24 0 -7 -8 -32 -19 -55 -93 -207 -260 -782 -307 -1057 -2 -14 -9
-45 -14 -70 -12 -59 -28 -152 -35 -215 -4 -27 -8 -57 -10 -65 -2 -8 -7 -42
-10 -75 -4 -33 -8 -71 -10 -85 -4 -25 -12 -109 -20 -205 -23 -274 -23 -749 1
-1000 17 -184 21 -223 35 -325 6 -41 13 -91 15 -110 3 -19 10 -62 16 -95 6
-33 12 -69 13 -80 4 -25 10 -56 36 -185 17 -86 106 -431 134 -523 53 -169 140
-417 170 -482 7 -16 35 -82 61 -145 165 -403 441 -883 741 -1289 206 -280 553
-660 823 -902 554 -498 1201 -900 1890 -1174 193 -77 461 -164 465 -152 2 7 3
354 2 772 l-2 760 -35 17 c-469 227 -591 293 -805 438 -591 398 -1089 926
-1457 1545 -106 178 -189 344 -293 580 -90 205 -241 688 -269 865 -3 19 -10
51 -14 70 -5 19 -9 38 -10 43 -1 4 -4 22 -7 40 -9 57 -14 89 -21 136 -3 25 -8
57 -10 71 -2 14 -7 59 -10 100 -4 41 -8 78 -10 81 -8 13 -18 251 -18 429 0
178 9 400 19 475 2 17 6 53 9 80 66 642 294 1326 631 1895 69 116 211 333 249
381 12 15 30 39 41 55 37 52 138 179 199 249 104 119 118 134 236 254 422 430
922 773 1491 1026 l86 38 0 768 c1 423 -2 771 -6 773 -3 1 -73 -20 -156 -49z"/>
<path d="M12165 13632 l-160 -2 2 -3493 c1 -1920 2 -3518 2 -3549 l1 -57 53
-5 c121 -13 157 -16 252 -23 199 -15 883 -7 983 11 9 2 53 7 97 11 126 12 128
12 160 18 17 3 50 9 75 12 41 4 114 16 281 45 69 12 255 54 364 82 44 11 87
21 95 23 102 23 483 150 664 222 237 94 575 254 724 342 29 17 55 31 57 31 9
0 250 149 380 235 231 153 484 348 701 540 96 85 407 395 486 485 32 36 72 81
89 100 26 29 67 80 212 260 105 131 299 417 428 630 87 145 269 494 333 640
142 320 310 812 361 1050 2 8 10 45 19 81 8 37 17 78 20 90 2 13 13 67 24 119
11 52 25 131 32 175 7 44 14 89 16 100 7 35 17 119 18 153 l1 34 -710 -1
c-390 0 -720 0 -732 0 -15 -1 -23 -9 -27 -28 -3 -16 -15 -77 -26 -138 -120
-627 -382 -1253 -752 -1796 -43 -64 -87 -125 -96 -135 -9 -11 -28 -35 -41 -54
-68 -97 -283 -342 -421 -480 -193 -193 -326 -308 -571 -493 -121 -92 -351
-238 -539 -341 -66 -37 -307 -156 -314 -156 -3 0 -33 -13 -68 -29 -65 -30
-206 -86 -293 -116 -27 -9 -59 -21 -70 -25 -113 -48 -556 -158 -740 -185 -22
-4 -47 -8 -55 -10 -13 -4 -15 232 -15 2079 0 2078 0 2085 20 2088 11 2 599 3
1308 3 708 -1 1287 2 1288 5 0 3 1 330 2 728 l2 722 -45 0 c-428 2 -3760 4
-3875 2z"/>
<path d="M5810 19757 c-57 -27 -94 -93 -88 -158 5 -46 42 -119 62 -119 8 0 24
14 171 152 78 74 78 80 1 117 -47 23 -107 26 -146 8z"/>
<path d="M19439 19756 c-34 -12 -99 -52 -99 -61 0 -10 232 -225 242 -225 4 0
19 20 33 45 79 133 -36 289 -176 241z"/>
<path d="M20589 18363 c-65 -27 -65 -26 18 -147 42 -61 84 -121 94 -134 l18
-23 35 35 c42 40 56 72 56 129 0 106 -121 182 -221 140z"/>
<path d="M22055 13029 c-49 -25 -76 -107 -54 -164 34 -85 79 -115 175 -119 66
-3 91 4 80 23 -4 6 -9 20 -11 30 -9 47 -38 149 -51 178 -25 57 -85 79 -139 52z"/>
<path d="M21954 10860 c-42 -13 -92 -66 -104 -110 -38 -142 94 -262 290 -263
110 -1 168 37 194 124 31 104 -25 189 -154 234 -55 20 -184 28 -226 15z"/>
<path d="M3335 9958 c-59 -30 -81 -54 -95 -103 -31 -111 44 -205 162 -205 67
0 70 6 49 80 -10 36 -29 103 -41 150 -13 47 -26 88 -29 92 -3 3 -24 -3 -46
-14z"/>
<path d="M21860 9614 c-29 -85 -49 -158 -45 -162 14 -15 134 -5 162 13 78 51
100 151 48 225 -21 31 -89 80 -109 80 -3 0 -28 -70 -56 -156z"/>
<path d="M3843 8968 c-51 -8 -168 -50 -246 -89 -78 -39 -141 -94 -171 -149
-40 -74 -34 -138 28 -290 25 -63 50 -118 54 -122 7 -7 676 273 695 291 8 8
-42 132 -90 226 -61 120 -131 155 -270 133z"/>
<path d="M5965 6360 l-60 -61 69 -66 69 -66 46 49 c83 88 82 77 10 144 -35 33
-66 60 -69 60 -3 0 -32 -27 -65 -60z"/>
<path d="M6286 6061 c-53 -54 -58 -62 -45 -77 19 -23 99 -98 109 -102 8 -3
120 107 120 118 0 7 -113 120 -121 120 -2 0 -31 -27 -63 -59z"/>
<path d="M6585 5769 l-58 -61 49 -46 c87 -83 76 -82 144 -10 l60 63 -62 58
c-34 31 -65 57 -69 57 -3 0 -32 -27 -64 -61z"/>
<path d="M7830 4887 c-119 -233 -189 -368 -207 -402 -6 -11 -24 -45 -39 -75
-15 -30 -55 -110 -89 -177 l-63 -123 72 -36 c39 -20 171 -88 294 -151 123 -63
225 -113 226 -112 2 2 52 99 111 214 213 416 309 602 355 691 l48 91 -122 62
c-66 34 -191 98 -276 142 -85 44 -164 84 -176 89 -19 8 -30 -10 -134 -213z"/>
<path d="M8724 4647 c-15 -29 -59 -115 -99 -192 -259 -500 -388 -756 -383
-759 11 -10 580 -297 582 -294 2 1 66 127 143 278 77 151 191 373 253 493 62
121 108 223 104 227 -5 5 -112 61 -239 125 -126 65 -254 131 -283 146 l-52 28
-26 -52z"/>
<path d="M14600 4019 c-19 -4 -53 -11 -75 -14 -22 -3 -47 -8 -55 -10 -8 -2
-33 -6 -55 -10 -22 -3 -74 -12 -115 -20 -41 -8 -86 -16 -100 -19 -14 -2 -41
-7 -61 -11 l-36 -7 9 -46 c5 -26 11 -60 14 -77 3 -16 12 -66 20 -110 8 -44 21
-116 29 -160 17 -101 23 -117 44 -111 9 2 34 7 56 11 22 4 50 9 63 11 12 2 32
6 45 8 26 4 178 33 222 41 17 3 48 8 70 11 60 7 75 14 75 32 0 9 -16 103 -35
207 -20 105 -38 206 -41 225 -10 66 -9 65 -74 49z"/>
<path d="M11193 4063 c-1 -10 -11 -72 -23 -138 -12 -66 -23 -135 -26 -154 -2
-19 -9 -52 -14 -75 -5 -22 -7 -42 -5 -45 3 -2 26 -7 52 -12 27 -4 62 -10 78
-13 58 -11 172 -31 235 -41 19 -3 46 -7 60 -10 14 -3 41 -7 60 -10 19 -3 55
-10 80 -15 25 -5 61 -12 80 -15 41 -6 136 -22 165 -28 11 -3 41 -8 67 -11 54
-7 54 -8 74 134 3 24 7 47 9 50 1 3 6 25 9 50 3 25 8 56 11 70 2 14 9 46 13
73 5 26 7 47 3 47 -3 0 -44 7 -91 16 -47 8 -100 17 -119 20 -18 3 -43 8 -55
10 -28 6 -49 9 -191 33 -66 12 -130 23 -141 25 -12 2 -38 7 -58 10 -19 3 -75
13 -123 21 -156 28 -149 27 -150 8z"/>
</g>
</svg>
